<?xml version="1.0"?>
<svg xmlns="http://www.w3.org/2000/svg" xmlns:xlink="http://www.w3.org/1999/xlink" width="512" height="512" viewBox="0 0 128 128"><defs><linearGradient id="a" x1="114.176" y1="105.089" x2="19.533" y2="10.445" gradientUnits="userSpaceOnUse"><stop offset="0" stop-color="#7075e0"/><stop offset="1" stop-color="#82ddd2"/></linearGradient></defs><path d="M63.556,36.17a1.75,1.75,0,0,1-1.249-2.137,83.66,83.66,0,0,1,2.539-8.047,1.75,1.75,0,1,1,3.279,1.225,80.553,80.553,0,0,0-2.433,7.709A1.751,1.751,0,0,1,64,36.227,1.8,1.8,0,0,1,63.556,36.17Zm42,17.61V75.561a1.75,1.75,0,0,1-3.5,0V53.78a12.78,12.78,0,0,0-25.56,0v53.19a12.78,12.78,0,0,0,25.56,0V93a1.75,1.75,0,0,1,3.5,0v13.97a16.294,16.294,0,0,1-16.28,16.28H76.22a34.734,34.734,0,0,1-34.69-34.7V71.75H39.583V73a1.749,1.749,0,0,1-1.75,1.75h-7.25A1.75,1.75,0,0,1,28.833,73V61a1.75,1.75,0,0,1,1.75-1.75h7.25A1.749,1.749,0,0,1,39.583,61v1.25h1.8a118.469,118.469,0,0,0-3.427-26.227,1.75,1.75,0,1,1,3.382-.9A122.038,122.038,0,0,1,44.888,62.25H64.642c.712-20.967,4.493-35.262,12.805-48H32.079a69.7,69.7,0,0,1,6.545,12.58,1.75,1.75,0,1,1-3.255,1.287A67.009,67.009,0,0,0,27.856,14.25h-.664a4.75,4.75,0,0,1,0-9.5H82.333a4.75,4.75,0,0,1,0,9.5h-.652c-8.822,12.634-12.8,26.728-13.537,48H73V53.78a16.28,16.28,0,0,1,32.56,0ZM27.192,10.75H82.333a1.25,1.25,0,0,0,0-2.5H27.192a1.25,1.25,0,0,0,0,2.5ZM68,94.5a8.95,8.95,0,0,0,5,8.047V71.75H68ZM36.083,71.25v-8.5h-3.75v8.5Zm3.5-3H73v-2.5H39.583ZM73,106.97v-.632A12.493,12.493,0,0,1,64.5,94.5V71.75H45.03v16.8a31.23,31.23,0,0,0,31.19,31.2h3.008A16.248,16.248,0,0,1,73,106.97ZM103.81,80.5a1.749,1.749,0,0,0-1.75,1.75v3.813a1.75,1.75,0,0,0,3.5,0V82.25A1.75,1.75,0,0,0,103.81,80.5ZM99.56,53.78v53.19a10.28,10.28,0,0,1-20.56,0V53.78a10.28,10.28,0,0,1,20.56,0ZM82.5,79.368a3.808,3.808,0,0,0,0-7.616Zm0,6a9.809,9.809,0,0,0,0-19.618v2.5a7.309,7.309,0,0,1,0,14.618ZM96.06,53.78a6.78,6.78,0,0,0-13.56,0v8.471a13.309,13.309,0,0,1,0,26.618v18.1a6.78,6.78,0,0,0,13.56,0Z" fill="url(#a)"/></svg>
